<svg height="512pt" viewBox="0 0 512 512.00199" width="512pt" xmlns="http://www.w3.org/2000/svg"><path d="m316.972656 256.003906h-37.886718c-4.875 0-8.828126-3.953125-8.828126-8.828125s3.953126-8.828125 8.828126-8.828125h37.886718c3.007813 0 5.808594-1.53125 7.433594-4.0625l65.492188-101.871094h-267.792969l65.480469 101.871094c1.628906 2.535156 4.433593 4.066406 7.441406 4.0625h37.890625c4.875 0 8.828125 3.953125 8.828125 8.828125s-3.953125 8.828125-8.828125 8.828125h-37.890625c-9.023438.019532-17.433594-4.574218-22.296875-12.175781l-74.222657-115.464844c-1.746093-2.714843-1.871093-6.167969-.324218-9.003906s4.519531-4.597656 7.75-4.597656h300.136718c3.230469 0 6.199219 1.761719 7.75 4.597656 1.546876 2.835937 1.421876 6.289063-.328124 9.003906l-74.230469 115.472657c-4.863281 7.597656-13.269531 12.1875-22.289063 12.167968zm0 0" fill="#5e5f62"/><path d="m238.347656 234.066406h35.308594v79.808594h-35.308594zm0 0" fill="#67b9cc"/><path d="m220.691406 300.140625h70.621094c4.875 0 8.828125 3.953125 8.828125 8.828125v30.894531h-88.277344v-30.894531c0-4.875 3.953125-8.828125 8.828125-8.828125zm0 0" fill="#3f5c6c"/><path d="m282.484375 225.105469c0-9.347657-10.8125-32.960938-18.617187-48.082031-1.507813-2.960938-4.546876-4.820313-7.867188-4.820313s-6.355469 1.859375-7.863281 4.820313c-7.804688 15.121093-18.617188 38.734374-18.617188 48.082031 0 14.625 11.855469 26.484375 26.480469 26.484375 14.628906 0 26.484375-11.859375 26.484375-26.484375zm0 0" fill="#f3d55b"/><path d="m357.519531 406.070312h57.378907v35.3125h-43.035157zm0 0" fill="#3f5c6c"/><path d="m423.726562 379.589844h17.652344c4.875 0 8.828125 3.949218 8.828125 8.824218v70.621094c0 4.875-3.953125 8.828125-8.828125 8.828125h-17.652344c-4.875 0-8.828124-3.953125-8.828124-8.828125v-70.621094c0-4.875 3.953124-8.824218 8.828124-8.824218zm0 0" fill="#67b9cc"/><path d="m354.332031 335.449219h-196.660156c-4.371094 0-8.085937 3.199219-8.730469 7.523437l-23.835937 158.894532c-.378907 2.542968.367187 5.121093 2.042969 7.070312 1.675781 1.945312 4.117187 3.066406 6.6875 3.066406h244.328124c2.570313 0 5.011719-1.121094 6.691407-3.066406 1.675781-1.949219 2.421875-4.527344 2.039062-7.070312l-23.832031-158.894532c-.648438-4.324218-4.359375-7.523437-8.730469-7.523437zm0 0" fill="#2fa8cc"/><path d="m260.589844 476.398438c-10.019532 1.300781-20.117188-1.753907-27.742188-8.382813s-12.050781-16.203125-12.15625-26.308594c2.597656-21.675781 8.765625-42.773437 18.253906-62.4375.703126-1.539062 2.226563-2.542969 3.917969-2.578125 1.691407-.039062 3.257813.894532 4.027344 2.402344l17.9375 35.804688 8.695313-11.589844c.949218-1.269532 2.507812-1.933594 4.078124-1.738282 1.574219.195313 2.921876 1.21875 3.53125 2.683594 4.683594 9.6875 7.972657 19.988282 9.773438 30.59375 2.8125 19.773438-10.625 38.195313-30.316406 41.550782zm0 0" fill="#f3d55b"/><path d="m8.828125 97.105469h494.34375c4.875 0 8.828125 3.953125 8.828125 8.828125v17.65625c0 4.875-3.953125 8.824218-8.828125 8.824218h-494.34375c-4.875 0-8.828125-3.949218-8.828125-8.824218v-17.65625c0-4.875 3.953125-8.828125 8.828125-8.828125zm0 0" fill="#7f8c8d"/><g fill="#af8066"><path d="m123.746094 70.621094c-3.542969-.023438-6.726563-2.164063-8.089844-5.4375-1.359375-3.269532-.632812-7.039063 1.847656-9.566406 2.144532-1.804688 3.582032-4.304688 4.0625-7.0625-.480468-2.734376-1.914062-5.207032-4.042968-6.984376-5.59375-4.976562-8.914063-12.019531-9.199219-19.5.292969-7.472656 3.613281-14.507812 9.199219-19.480468 2.230468-2.234375 5.480468-3.105469 8.527343-2.289063 3.046875.816407 5.425781 3.195313 6.246094 6.242188.816406 3.046875-.054687 6.296875-2.28125 8.527343-2.128906 1.789063-3.558594 4.269532-4.035156 7.007813.476562 2.738281 1.90625 5.21875 4.035156 7 5.585937 4.972656 8.910156 12.003906 9.207031 19.476563-.304687 7.484374-3.640625 14.527343-9.234375 19.507812-1.660156 1.644531-3.90625 2.566406-6.242187 2.558594zm0 0"/><path d="m211.863281 70.621094c-3.53125-.046875-6.695312-2.199219-8.039062-5.464844s-.613281-7.019531 1.859375-9.539062c2.140625-1.804688 3.578125-4.304688 4.0625-7.0625-.480469-2.730469-1.910156-5.207032-4.035156-6.984376-5.609376-4.96875-8.949219-12.011718-9.242188-19.5.292969-7.476562 3.621094-14.511718 9.214844-19.480468 3.464844-3.347656 8.96875-3.300782 12.375.105468s3.453125 8.910157.105468 12.375c-2.125 1.789063-3.554687 4.269532-4.03125 7.007813.476563 2.738281 1.90625 5.21875 4.03125 7 5.585938 4.972656 8.90625 12.003906 9.199219 19.476563-.304687 7.484374-3.636719 14.527343-9.234375 19.507812-1.664062 1.652344-3.917968 2.574219-6.265625 2.558594zm0 0"/><path d="m300.066406 70.621094c-3.539062-.023438-6.726562-2.164063-8.085937-5.4375-1.359375-3.269532-.632813-7.039063 1.847656-9.566406 2.140625-1.804688 3.578125-4.304688 4.058594-7.0625-.476563-2.730469-1.90625-5.207032-4.03125-6.984376-5.59375-4.976562-8.921875-12.015624-9.21875-19.5.304687-7.472656 3.632812-14.503906 9.21875-19.480468 3.484375-3.203125 8.875-3.089844 12.21875.261718 3.34375 3.347657 3.453125 8.738282.242187 12.21875-2.128906 1.789063-3.5625 4.269532-4.042968 7.007813.480468 2.734375 1.910156 5.210937 4.035156 6.992187 5.601562 4.96875 8.9375 12.003907 9.234375 19.484376-.296875 7.484374-3.628907 14.527343-9.226563 19.507812-1.660156 1.648438-3.90625 2.570312-6.25 2.558594zm0 0"/><path d="m388.601562 70.621094c-3.546874-.019532-6.734374-2.160156-8.097656-5.433594-1.363281-3.269531-.636718-7.039062 1.847656-9.570312 2.140626-1.804688 3.578126-4.304688 4.058594-7.0625-.476562-2.730469-1.90625-5.207032-4.035156-6.984376-5.59375-4.976562-8.917969-12.015624-9.207031-19.5.296875-7.472656 3.621093-14.507812 9.207031-19.480468 3.464844-3.347656 8.972656-3.300782 12.375.105468 3.40625 3.40625 3.453125 8.910157.109375 12.375-2.128906 1.789063-3.558594 4.269532-4.035156 7.007813.476562 2.738281 1.90625 5.21875 4.035156 7 5.589844 4.96875 8.914063 12 9.207031 19.476563-.300781 7.484374-3.632812 14.527343-9.226562 19.507812-1.65625 1.644531-3.902344 2.566406-6.238282 2.558594zm0 0"/><path d="m35.425781 70.621094c-3.570312 0-6.789062-2.148438-8.152343-5.449219-1.367188-3.296875-.613282-7.09375 1.910156-9.617187 2.144531-1.804688 3.582031-4.304688 4.0625-7.0625-.480469-2.730469-1.90625-5.203126-4.035156-6.984376-5.582032-4.957031-8.90625-11.976562-9.207032-19.4375.292969-7.476562 3.617188-14.511718 9.207032-19.480468 3.464843-3.347656 8.96875-3.300782 12.375.105468s3.453124 8.910157.109374 12.375c-2.128906 1.785157-3.554687 4.265626-4.035156 7 .480469 2.730469 1.910156 5.203126 4.035156 6.984376 5.59375 4.976562 8.917969 12.015624 9.207032 19.5-.3125 7.476562-3.644532 14.507812-9.234375 19.480468-1.65625 1.65625-3.902344 2.585938-6.242188 2.585938zm0 0"/><path d="m476.691406 70.621094c-3.542968-.027344-6.722656-2.167969-8.082031-5.441406-1.359375-3.269532-.628906-7.035157 1.847656-9.5625 2.144531-1.804688 3.582031-4.304688 4.0625-7.0625-.480469-2.730469-1.90625-5.207032-4.035156-6.984376-5.597656-4.972656-8.921875-12.015624-9.207031-19.5.300781-7.480468 3.632812-14.515624 9.234375-19.480468 3.464843-3.347656 8.96875-3.300782 12.375.105468s3.453125 8.910157.105469 12.375c-2.125 1.789063-3.554688 4.269532-4.03125 7.007813.476562 2.738281 1.90625 5.21875 4.03125 7 5.578124 4.976563 8.894531 12.007813 9.183593 19.476563-.304687 7.484374-3.640625 14.527343-9.234375 19.507812-1.664062 1.648438-3.910156 2.570312-6.25 2.558594zm0 0"/></g></svg>